<mxfile host="app.diagrams.net" modified="2023-09-02T12:24:35.750Z" agent="Mozilla/5.0 (Macintosh; Intel Mac OS X 10_15_7) AppleWebKit/605.1.15 (KHTML, like Gecko) Version/16.6 Safari/605.1.15" etag="dr0owG2a3L3gr0XjeNGw" version="21.7.2" type="device">
  <diagram name="Page-1" id="dkWwP9leMnmAGlYUf2Ri">
    <mxGraphModel dx="2397" dy="2137" grid="1" gridSize="10" guides="1" tooltips="1" connect="1" arrows="1" fold="1" page="1" pageScale="1" pageWidth="827" pageHeight="1169" math="0" shadow="0">
      <root>
        <mxCell id="0" />
        <mxCell id="1" parent="0" />
        <mxCell id="et8Q3a_r-O8e4dzCY30--9" style="edgeStyle=orthogonalEdgeStyle;rounded=0;orthogonalLoop=1;jettySize=auto;html=1;entryX=0;entryY=0.5;entryDx=0;entryDy=0;" edge="1" parent="1" source="et8Q3a_r-O8e4dzCY30--1" target="et8Q3a_r-O8e4dzCY30--8">
          <mxGeometry relative="1" as="geometry" />
        </mxCell>
        <mxCell id="et8Q3a_r-O8e4dzCY30--1" value="User" style="rounded=0;whiteSpace=wrap;html=1;" vertex="1" parent="1">
          <mxGeometry x="-190" y="300" width="120" height="60" as="geometry" />
        </mxCell>
        <mxCell id="et8Q3a_r-O8e4dzCY30--18" style="edgeStyle=orthogonalEdgeStyle;rounded=0;orthogonalLoop=1;jettySize=auto;html=1;exitX=0.25;exitY=0;exitDx=0;exitDy=0;entryX=0.25;entryY=1;entryDx=0;entryDy=0;" edge="1" parent="1" source="et8Q3a_r-O8e4dzCY30--4" target="et8Q3a_r-O8e4dzCY30--17">
          <mxGeometry relative="1" as="geometry" />
        </mxCell>
        <mxCell id="et8Q3a_r-O8e4dzCY30--19" value="Create a Request" style="edgeLabel;html=1;align=center;verticalAlign=middle;resizable=0;points=[];fontSize=12;" vertex="1" connectable="0" parent="et8Q3a_r-O8e4dzCY30--18">
          <mxGeometry x="0.0909" y="1" relative="1" as="geometry">
            <mxPoint x="-49" y="5" as="offset" />
          </mxGeometry>
        </mxCell>
        <mxCell id="et8Q3a_r-O8e4dzCY30--22" style="edgeStyle=orthogonalEdgeStyle;rounded=0;orthogonalLoop=1;jettySize=auto;html=1;exitX=0.75;exitY=1;exitDx=0;exitDy=0;entryX=0.75;entryY=0;entryDx=0;entryDy=0;" edge="1" parent="1" source="et8Q3a_r-O8e4dzCY30--4" target="et8Q3a_r-O8e4dzCY30--8">
          <mxGeometry relative="1" as="geometry" />
        </mxCell>
        <mxCell id="et8Q3a_r-O8e4dzCY30--37" style="edgeStyle=orthogonalEdgeStyle;rounded=0;orthogonalLoop=1;jettySize=auto;html=1;exitX=1;exitY=0.25;exitDx=0;exitDy=0;entryX=0.25;entryY=0;entryDx=0;entryDy=0;" edge="1" parent="1" source="et8Q3a_r-O8e4dzCY30--4" target="et8Q3a_r-O8e4dzCY30--6">
          <mxGeometry relative="1" as="geometry" />
        </mxCell>
        <mxCell id="et8Q3a_r-O8e4dzCY30--4" value="Request Network&lt;br&gt;Microservice" style="rounded=0;whiteSpace=wrap;html=1;" vertex="1" parent="1">
          <mxGeometry x="60" y="90" width="120" height="60" as="geometry" />
        </mxCell>
        <mxCell id="et8Q3a_r-O8e4dzCY30--40" style="edgeStyle=orthogonalEdgeStyle;rounded=0;orthogonalLoop=1;jettySize=auto;html=1;exitX=0.25;exitY=1;exitDx=0;exitDy=0;entryX=0.25;entryY=0;entryDx=0;entryDy=0;" edge="1" parent="1" source="et8Q3a_r-O8e4dzCY30--6" target="et8Q3a_r-O8e4dzCY30--42">
          <mxGeometry relative="1" as="geometry">
            <mxPoint x="710" y="480" as="targetPoint" />
          </mxGeometry>
        </mxCell>
        <mxCell id="et8Q3a_r-O8e4dzCY30--43" value="Payload" style="edgeLabel;html=1;align=center;verticalAlign=middle;resizable=0;points=[];" vertex="1" connectable="0" parent="et8Q3a_r-O8e4dzCY30--40">
          <mxGeometry x="-0.05" y="-1" relative="1" as="geometry">
            <mxPoint x="-29" y="3" as="offset" />
          </mxGeometry>
        </mxCell>
        <mxCell id="et8Q3a_r-O8e4dzCY30--47" style="edgeStyle=orthogonalEdgeStyle;rounded=0;orthogonalLoop=1;jettySize=auto;html=1;exitX=0.75;exitY=0;exitDx=0;exitDy=0;entryX=0;entryY=0.5;entryDx=0;entryDy=0;" edge="1" parent="1" source="et8Q3a_r-O8e4dzCY30--6" target="et8Q3a_r-O8e4dzCY30--46">
          <mxGeometry relative="1" as="geometry" />
        </mxCell>
        <mxCell id="et8Q3a_r-O8e4dzCY30--48" value="Store commitment info&lt;br&gt;" style="edgeLabel;html=1;align=center;verticalAlign=middle;resizable=0;points=[];" vertex="1" connectable="0" parent="et8Q3a_r-O8e4dzCY30--47">
          <mxGeometry x="-0.4308" y="3" relative="1" as="geometry">
            <mxPoint x="33" as="offset" />
          </mxGeometry>
        </mxCell>
        <mxCell id="et8Q3a_r-O8e4dzCY30--49" style="edgeStyle=orthogonalEdgeStyle;rounded=0;orthogonalLoop=1;jettySize=auto;html=1;entryX=0;entryY=0.5;entryDx=0;entryDy=0;" edge="1" parent="1" source="et8Q3a_r-O8e4dzCY30--6" target="et8Q3a_r-O8e4dzCY30--50">
          <mxGeometry relative="1" as="geometry">
            <mxPoint x="1060" y="350" as="targetPoint" />
          </mxGeometry>
        </mxCell>
        <mxCell id="et8Q3a_r-O8e4dzCY30--51" value="Post the commitment" style="edgeLabel;html=1;align=center;verticalAlign=middle;resizable=0;points=[];" vertex="1" connectable="0" parent="et8Q3a_r-O8e4dzCY30--49">
          <mxGeometry x="0.0452" y="1" relative="1" as="geometry">
            <mxPoint as="offset" />
          </mxGeometry>
        </mxCell>
        <mxCell id="et8Q3a_r-O8e4dzCY30--6" value="zApp" style="rounded=0;whiteSpace=wrap;html=1;" vertex="1" parent="1">
          <mxGeometry x="680" y="320" width="120" height="60" as="geometry" />
        </mxCell>
        <mxCell id="et8Q3a_r-O8e4dzCY30--15" style="edgeStyle=orthogonalEdgeStyle;rounded=0;orthogonalLoop=1;jettySize=auto;html=1;exitX=0.25;exitY=0;exitDx=0;exitDy=0;entryX=0.25;entryY=1;entryDx=0;entryDy=0;" edge="1" parent="1" source="et8Q3a_r-O8e4dzCY30--8" target="et8Q3a_r-O8e4dzCY30--4">
          <mxGeometry relative="1" as="geometry" />
        </mxCell>
        <mxCell id="et8Q3a_r-O8e4dzCY30--16" value="Order Intent" style="edgeLabel;html=1;align=center;verticalAlign=middle;resizable=0;points=[];" vertex="1" connectable="0" parent="et8Q3a_r-O8e4dzCY30--15">
          <mxGeometry x="0.2267" y="3" relative="1" as="geometry">
            <mxPoint x="-37" y="12" as="offset" />
          </mxGeometry>
        </mxCell>
        <mxCell id="et8Q3a_r-O8e4dzCY30--28" style="edgeStyle=orthogonalEdgeStyle;rounded=0;orthogonalLoop=1;jettySize=auto;html=1;exitX=0.75;exitY=1;exitDx=0;exitDy=0;entryX=0.75;entryY=0;entryDx=0;entryDy=0;" edge="1" parent="1" source="et8Q3a_r-O8e4dzCY30--8" target="et8Q3a_r-O8e4dzCY30--27">
          <mxGeometry relative="1" as="geometry" />
        </mxCell>
        <mxCell id="et8Q3a_r-O8e4dzCY30--29" value="Pay" style="edgeLabel;html=1;align=center;verticalAlign=middle;resizable=0;points=[];" vertex="1" connectable="0" parent="et8Q3a_r-O8e4dzCY30--28">
          <mxGeometry x="-0.24" relative="1" as="geometry">
            <mxPoint as="offset" />
          </mxGeometry>
        </mxCell>
        <mxCell id="et8Q3a_r-O8e4dzCY30--8" value="Cafe app/frontend&lt;br&gt;with integrated wallet &amp;amp; onRamp" style="rounded=0;whiteSpace=wrap;html=1;" vertex="1" parent="1">
          <mxGeometry x="60" y="300" width="120" height="60" as="geometry" />
        </mxCell>
        <mxCell id="et8Q3a_r-O8e4dzCY30--20" style="edgeStyle=orthogonalEdgeStyle;rounded=0;orthogonalLoop=1;jettySize=auto;html=1;exitX=0.75;exitY=1;exitDx=0;exitDy=0;entryX=0.75;entryY=0;entryDx=0;entryDy=0;" edge="1" parent="1" source="et8Q3a_r-O8e4dzCY30--17" target="et8Q3a_r-O8e4dzCY30--4">
          <mxGeometry relative="1" as="geometry" />
        </mxCell>
        <mxCell id="et8Q3a_r-O8e4dzCY30--17" value="Request Network" style="rounded=0;whiteSpace=wrap;html=1;" vertex="1" parent="1">
          <mxGeometry x="60" y="-80" width="120" height="60" as="geometry" />
        </mxCell>
        <mxCell id="et8Q3a_r-O8e4dzCY30--21" value="Send the Request" style="text;html=1;align=center;verticalAlign=middle;resizable=0;points=[];autosize=1;strokeColor=none;fillColor=none;" vertex="1" parent="1">
          <mxGeometry x="150" y="20" width="120" height="30" as="geometry" />
        </mxCell>
        <mxCell id="et8Q3a_r-O8e4dzCY30--32" style="edgeStyle=orthogonalEdgeStyle;rounded=0;orthogonalLoop=1;jettySize=auto;html=1;exitX=0.75;exitY=1;exitDx=0;exitDy=0;entryX=0.25;entryY=1;entryDx=0;entryDy=0;" edge="1" parent="1" target="et8Q3a_r-O8e4dzCY30--31">
          <mxGeometry relative="1" as="geometry">
            <mxPoint x="120" y="520" as="sourcePoint" />
            <mxPoint x="450" y="520" as="targetPoint" />
            <Array as="points">
              <mxPoint x="150" y="520" />
              <mxPoint x="150" y="590" />
              <mxPoint x="460" y="590" />
            </Array>
          </mxGeometry>
        </mxCell>
        <mxCell id="et8Q3a_r-O8e4dzCY30--33" value="Emits event" style="edgeLabel;html=1;align=center;verticalAlign=middle;resizable=0;points=[];fontSize=12;" vertex="1" connectable="0" parent="et8Q3a_r-O8e4dzCY30--32">
          <mxGeometry x="-0.0979" y="-1" relative="1" as="geometry">
            <mxPoint y="9" as="offset" />
          </mxGeometry>
        </mxCell>
        <mxCell id="et8Q3a_r-O8e4dzCY30--27" value="Request Network&amp;nbsp;&lt;br&gt;ERC20FeeProxy&amp;nbsp;" style="rounded=0;whiteSpace=wrap;html=1;" vertex="1" parent="1">
          <mxGeometry x="60" y="460" width="120" height="60" as="geometry" />
        </mxCell>
        <mxCell id="et8Q3a_r-O8e4dzCY30--35" style="edgeStyle=orthogonalEdgeStyle;rounded=0;orthogonalLoop=1;jettySize=auto;html=1;exitX=0.25;exitY=0;exitDx=0;exitDy=0;entryX=1;entryY=0.75;entryDx=0;entryDy=0;" edge="1" parent="1" source="et8Q3a_r-O8e4dzCY30--31" target="et8Q3a_r-O8e4dzCY30--4">
          <mxGeometry relative="1" as="geometry" />
        </mxCell>
        <mxCell id="et8Q3a_r-O8e4dzCY30--36" value="Check order info by received reference" style="edgeLabel;html=1;align=center;verticalAlign=middle;resizable=0;points=[];" vertex="1" connectable="0" parent="et8Q3a_r-O8e4dzCY30--35">
          <mxGeometry x="0.4924" y="-1" relative="1" as="geometry">
            <mxPoint as="offset" />
          </mxGeometry>
        </mxCell>
        <mxCell id="et8Q3a_r-O8e4dzCY30--31" value="Viem event listener" style="rounded=0;whiteSpace=wrap;html=1;" vertex="1" parent="1">
          <mxGeometry x="430" y="340" width="120" height="60" as="geometry" />
        </mxCell>
        <mxCell id="et8Q3a_r-O8e4dzCY30--39" value="Send points amount and target user address" style="text;html=1;align=center;verticalAlign=middle;resizable=0;points=[];autosize=1;strokeColor=none;fillColor=none;" vertex="1" parent="1">
          <mxGeometry x="360" y="78" width="260" height="30" as="geometry" />
        </mxCell>
        <mxCell id="et8Q3a_r-O8e4dzCY30--44" style="edgeStyle=orthogonalEdgeStyle;rounded=0;orthogonalLoop=1;jettySize=auto;html=1;exitX=0.75;exitY=0;exitDx=0;exitDy=0;entryX=0.75;entryY=1;entryDx=0;entryDy=0;" edge="1" parent="1" source="et8Q3a_r-O8e4dzCY30--42" target="et8Q3a_r-O8e4dzCY30--6">
          <mxGeometry relative="1" as="geometry" />
        </mxCell>
        <mxCell id="et8Q3a_r-O8e4dzCY30--45" value="Send back proof" style="edgeLabel;html=1;align=center;verticalAlign=middle;resizable=0;points=[];" vertex="1" connectable="0" parent="et8Q3a_r-O8e4dzCY30--44">
          <mxGeometry x="0.2" y="-1" relative="1" as="geometry">
            <mxPoint x="49" y="12" as="offset" />
          </mxGeometry>
        </mxCell>
        <mxCell id="et8Q3a_r-O8e4dzCY30--42" value="Zokrates worker&lt;br&gt;(generate proof)" style="rounded=0;whiteSpace=wrap;html=1;" vertex="1" parent="1">
          <mxGeometry x="680" y="500" width="120" height="60" as="geometry" />
        </mxCell>
        <mxCell id="et8Q3a_r-O8e4dzCY30--46" value="Timber/MongoDB" style="rounded=0;whiteSpace=wrap;html=1;" vertex="1" parent="1">
          <mxGeometry x="790" y="180" width="120" height="60" as="geometry" />
        </mxCell>
        <mxCell id="et8Q3a_r-O8e4dzCY30--50" value="Shield Contract" style="rounded=0;whiteSpace=wrap;html=1;" vertex="1" parent="1">
          <mxGeometry x="1110" y="320" width="120" height="60" as="geometry" />
        </mxCell>
      </root>
    </mxGraphModel>
  </diagram>
</mxfile>
